<svg version="1.1" xmlns="http://www.w3.org/2000/svg" viewBox="0 0 4658.09492274693 3445.2601286872987" width="4658.09492274693" height="3445.2601286872987" filter="invert(93%) hue-rotate(180deg)">
  <!-- svg-source:excalidraw -->
  
  <defs>
    <style class="style-fonts">
      @font-face {
        font-family: "Virgil";
        src: url("https://excalidraw.com/Virgil.woff2");
      }
      @font-face {
        font-family: "Cascadia";
        src: url("https://excalidraw.com/Cascadia.woff2");
      }
      @font-face {
        font-family: "Assistant";
        src: url("https://excalidraw.com/Assistant-Regular.woff2");
      }
    </style>
    
  </defs>
  <rect x="0" y="0" width="4658.09492274693" height="3445.2601286872987" fill="#ffffff"></rect><g transform="translate(2012.3104761517227 10) rotate(0 231.80392456054688 22.5)"><text x="0" y="0" font-family="Virgil, Segoe UI Emoji" font-size="36px" fill="#1e1e1e" text-anchor="start" style="white-space: pre;" direction="ltr" dominant-baseline="text-before-edge">Pensamiento estructurado</text></g><g transform="translate(2129.256543356274 127.20325796944746) rotate(0 424.7998046875 135)"><text x="0" y="0" font-family="Virgil, Segoe UI Emoji" font-size="36px" fill="#e03131" text-anchor="start" style="white-space: pre;" direction="ltr" dominant-baseline="text-before-edge">Definición del problema</text><text x="0" y="45" font-family="Virgil, Segoe UI Emoji" font-size="36px" fill="#e03131" text-anchor="start" style="white-space: pre;" direction="ltr" dominant-baseline="text-before-edge"></text><text x="0" y="90" font-family="Virgil, Segoe UI Emoji" font-size="36px" fill="#e03131" text-anchor="start" style="white-space: pre;" direction="ltr" dominant-baseline="text-before-edge">Aqui es donde se plantea cuál es el problema a</text><text x="0" y="135" font-family="Virgil, Segoe UI Emoji" font-size="36px" fill="#e03131" text-anchor="start" style="white-space: pre;" direction="ltr" dominant-baseline="text-before-edge">solucionar</text><text x="0" y="180" font-family="Virgil, Segoe UI Emoji" font-size="36px" fill="#e03131" text-anchor="start" style="white-space: pre;" direction="ltr" dominant-baseline="text-before-edge"></text><text x="0" y="225" font-family="Virgil, Segoe UI Emoji" font-size="36px" fill="#e03131" text-anchor="start" style="white-space: pre;" direction="ltr" dominant-baseline="text-before-edge">"Quiero colgar un cuadro en la pared"</text></g><g transform="translate(2136.9517066592252 413.18420676579547) rotate(0 1099.997802734375 67.5)"><text x="0" y="0" font-family="Virgil, Segoe UI Emoji" font-size="36px" fill="#e03131" text-anchor="start" style="white-space: pre;" direction="ltr" dominant-baseline="text-before-edge">"Se requiere colocar un cuadro de madera de 1kg, con cobertura de vidrio,</text><text x="0" y="45" font-family="Virgil, Segoe UI Emoji" font-size="36px" fill="#e03131" text-anchor="start" style="white-space: pre;" direction="ltr" dominant-baseline="text-before-edge">de 50 x 80 cm, en posición vertical,que no esta preparado para ser colgado, en el centro superior de un muro de concreto</text><text x="0" y="90" font-family="Virgil, Segoe UI Emoji" font-size="36px" fill="#e03131" text-anchor="start" style="white-space: pre;" direction="ltr" dominant-baseline="text-before-edge">de 10" de espesor"</text></g><g transform="translate(2803.694644019716 683.1269296313089) rotate(0 179.00991821289062 22.5)"><text x="0" y="0" font-family="Virgil, Segoe UI Emoji" font-size="36px" fill="#2f9e44" text-anchor="start" style="white-space: pre;" direction="ltr" dominant-baseline="text-before-edge">Análisis del problema</text></g><g transform="translate(2803.694644019716 752.1936512296162) rotate(0 899.8737792968751 179.99999999999994)"><text x="0" y="0" font-family="Virgil, Segoe UI Emoji" font-size="36px" fill="#2f9e44" text-anchor="start" style="white-space: pre;" direction="ltr" dominant-baseline="text-before-edge">En esta parte se estudian las implicaciones relativas al problema</text><text x="0" y="45" font-family="Virgil, Segoe UI Emoji" font-size="36px" fill="#2f9e44" text-anchor="start" style="white-space: pre;" direction="ltr" dominant-baseline="text-before-edge"></text><text x="0" y="90" font-family="Virgil, Segoe UI Emoji" font-size="36px" fill="#2f9e44" text-anchor="start" style="white-space: pre;" direction="ltr" dominant-baseline="text-before-edge">- Se necesita colocar algo en el muro para poder colgar el cuadro</text><text x="0" y="135" font-family="Virgil, Segoe UI Emoji" font-size="36px" fill="#2f9e44" text-anchor="start" style="white-space: pre;" direction="ltr" dominant-baseline="text-before-edge">- Se necesita algo que me permita medir el muro y determinar el punto o el lugar </text><text x="0" y="180" font-family="Virgil, Segoe UI Emoji" font-size="36px" fill="#2f9e44" text-anchor="start" style="white-space: pre;" direction="ltr" dominant-baseline="text-before-edge">en el que se colgará el cuadro</text><text x="0" y="225" font-family="Virgil, Segoe UI Emoji" font-size="36px" fill="#2f9e44" text-anchor="start" style="white-space: pre;" direction="ltr" dominant-baseline="text-before-edge">- se necesita confirmar que no hay nada en la zona donde se colocará el cuadro, que sea afectado</text><text x="0" y="270" font-family="Virgil, Segoe UI Emoji" font-size="36px" fill="#2f9e44" text-anchor="start" style="white-space: pre;" direction="ltr" dominant-baseline="text-before-edge">- Se necesita preparar el cuadro para ser colgado</text><text x="0" y="315" font-family="Virgil, Segoe UI Emoji" font-size="36px" fill="#2f9e44" text-anchor="start" style="white-space: pre;" direction="ltr" dominant-baseline="text-before-edge">         </text></g><g transform="translate(2526.894595191591 758.3270028734964) rotate(0 -2.4000244140625 -2.399993896484375)" stroke="none"><path fill="#e03131" d="M 4.24,-1.32 Q 4.24,-1.32 4.30,-0.26 4.36,0.80 3.93,1.76 3.49,2.73 2.65,3.39 1.82,4.05 0.77,4.24 -0.26,4.43 -1.28,4.11 -2.29,3.80 -3.04,3.04 -3.80,2.29 -4.11,1.28 -4.43,0.26 -4.24,-0.77 -4.04,-1.82 -3.39,-2.65 -2.73,-3.49 -1.76,-3.93 -0.79,-4.36 0.26,-4.30 1.32,-4.23 2.23,-3.68 3.14,-3.13 3.69,-2.23 L 4.24,-1.32 Z"></path></g><g transform="translate(2834.927961077009 1219.593802800254) rotate(0 742.4097290039064 67.5)"><text x="0" y="0" font-family="Virgil, Segoe UI Emoji" font-size="36px" fill="#1971c2" text-anchor="start" style="white-space: pre;" direction="ltr" dominant-baseline="text-before-edge">Definición de las herramientas</text><text x="0" y="45" font-family="Virgil, Segoe UI Emoji" font-size="36px" fill="#1971c2" text-anchor="start" style="white-space: pre;" direction="ltr" dominant-baseline="text-before-edge">En este paso se plantean las herramientas que pueden ser ocupadas con base en </text><text x="0" y="90" font-family="Virgil, Segoe UI Emoji" font-size="36px" fill="#1971c2" text-anchor="start" style="white-space: pre;" direction="ltr" dominant-baseline="text-before-edge">las diferentes implicaciones del problema.</text></g><g transform="translate(2852.2612333751863 1423.593792627728) rotate(0 71.17198181152344 22.5)"><text x="0" y="0" font-family="Virgil, Segoe UI Emoji" font-size="36px" fill="#1971c2" text-anchor="start" style="white-space: pre;" direction="ltr" dominant-baseline="text-before-edge">Taladro</text></g><g transform="translate(2857.594637916202 1506.2604694669205) rotate(0 67.08596801757812 22.5)"><text x="0" y="0" font-family="Virgil, Segoe UI Emoji" font-size="36px" fill="#1971c2" text-anchor="start" style="white-space: pre;" direction="ltr" dominant-baseline="text-before-edge">Martillo</text></g><g transform="translate(3125.5946175711497 1440.9271157885353) rotate(0 47.717979431152344 22.5)"><text x="0" y="0" font-family="Virgil, Segoe UI Emoji" font-size="36px" fill="#1971c2" text-anchor="start" style="white-space: pre;" direction="ltr" dominant-baseline="text-before-edge">Clavo</text></g><g transform="translate(3111.5947803315667 1502.2604287768165) rotate(0 76.39197540283203 22.5)"><text x="0" y="0" font-family="Virgil, Segoe UI Emoji" font-size="36px" fill="#1971c2" text-anchor="start" style="white-space: pre;" direction="ltr" dominant-baseline="text-before-edge">Taquete</text></g><g transform="translate(3380.2612638927644 1455.5937621101498) rotate(0 39.52796936035156 22.5)"><text x="0" y="0" font-family="Virgil, Segoe UI Emoji" font-size="36px" fill="#1971c2" text-anchor="start" style="white-space: pre;" direction="ltr" dominant-baseline="text-before-edge">Nivel</text></g><g transform="translate(3398.2611926850823 1537.5938333178321) rotate(0 63.97197723388672 22.5)"><text x="0" y="0" font-family="Virgil, Segoe UI Emoji" font-size="36px" fill="#1971c2" text-anchor="start" style="white-space: pre;" direction="ltr" dominant-baseline="text-before-edge">Tornillo</text></g><g transform="translate(3589.5945565359934 1474.2604491218685) rotate(0 123.31794738769531 22.5)"><text x="0" y="0" font-family="Virgil, Segoe UI Emoji" font-size="36px" fill="#1971c2" text-anchor="start" style="white-space: pre;" direction="ltr" dominant-baseline="text-before-edge">Destornillador</text></g><g transform="translate(3632.2614368257073 1541.593772282676) rotate(0 51.839988708496094 22.5)"><text x="0" y="0" font-family="Virgil, Segoe UI Emoji" font-size="36px" fill="#1971c2" text-anchor="start" style="white-space: pre;" direction="ltr" dominant-baseline="text-before-edge">Broca</text></g><g transform="translate(2860.261263892765 1575.5938638354103) rotate(0 73.88996887207031 22.5)"><text x="0" y="0" font-family="Virgil, Segoe UI Emoji" font-size="36px" fill="#1971c2" text-anchor="start" style="white-space: pre;" direction="ltr" dominant-baseline="text-before-edge">Adhesivo</text></g><g transform="translate(3104.2614571707595 1574.9272073412696) rotate(0 82.76396942138672 22.5)"><text x="0" y="0" font-family="Virgil, Segoe UI Emoji" font-size="36px" fill="#1971c2" text-anchor="start" style="white-space: pre;" direction="ltr" dominant-baseline="text-before-edge">Extensión</text></g><g transform="translate(3412.261182512556 1616.9271259610614) rotate(0 66.34797668457043 22.5)"><text x="0" y="0" font-family="Virgil, Segoe UI Emoji" font-size="36px" fill="#1971c2" text-anchor="start" style="white-space: pre;" direction="ltr" dominant-baseline="text-before-edge">soporte</text></g><g transform="translate(3638.927849179223 1622.2605305020772) rotate(0 94.12196350097656 22.5)"><text x="0" y="0" font-family="Virgil, Segoe UI Emoji" font-size="36px" fill="#1971c2" text-anchor="start" style="white-space: pre;" direction="ltr" dominant-baseline="text-before-edge">Flexómetro</text></g><g transform="translate(2865.59456670852 1671.5938231453065) rotate(0 43.991981506347656 22.5)"><text x="0" y="0" font-family="Virgil, Segoe UI Emoji" font-size="36px" fill="#1971c2" text-anchor="start" style="white-space: pre;" direction="ltr" dominant-baseline="text-before-edge">Lápiz</text></g><g transform="translate(3121.5945768810457 1690.2605101570255) rotate(0 116.96395111083984 22.5)"><text x="0" y="0" font-family="Virgil, Segoe UI Emoji" font-size="36px" fill="#1971c2" text-anchor="start" style="white-space: pre;" direction="ltr" dominant-baseline="text-before-edge">Medidor láser</text></g><g transform="translate(3456.2612232026604 1710.2605101570255) rotate(0 77.27396392822277 22.5)"><text x="0" y="0" font-family="Virgil, Segoe UI Emoji" font-size="36px" fill="#1971c2" text-anchor="start" style="white-space: pre;" direction="ltr" dominant-baseline="text-before-edge">Escalera</text></g><g transform="translate(3909.594709123884 1472.2605305020772) rotate(0 151.39793395996094 22.5)"><text x="0" y="0" font-family="Virgil, Segoe UI Emoji" font-size="36px" fill="#1971c2" text-anchor="start" style="white-space: pre;" direction="ltr" dominant-baseline="text-before-edge">Energía eléctrica</text></g><g transform="translate(3704.2612028576077 1728.9271971687442) rotate(0 110.32196044921875 22.5)"><text x="0" y="0" font-family="Virgil, Segoe UI Emoji" font-size="36px" fill="#1971c2" text-anchor="start" style="white-space: pre;" direction="ltr" dominant-baseline="text-before-edge">Cina métrica</text></g><g transform="translate(3926.92782883417 1584.9271564786397) rotate(0 133.30795288085938 22.5)"><text x="0" y="0" font-family="Virgil, Segoe UI Emoji" font-size="36px" fill="#1971c2" text-anchor="start" style="white-space: pre;" direction="ltr" dominant-baseline="text-before-edge">Cinta de pintor</text></g><g transform="translate(2739.5946582612546 2832.9272887214784) rotate(0 191.75393676757812 22.5)"><text x="0" y="0" font-family="Virgil, Segoe UI Emoji" font-size="36px" fill="#f08c00" text-anchor="start" style="white-space: pre;" direction="ltr" dominant-baseline="text-before-edge">Detector de humedad</text></g><g transform="translate(2380.2611113048742 2834.260499984499) rotate(0 56.78997802734375 22.5)"><text x="0" y="0" font-family="Virgil, Segoe UI Emoji" font-size="36px" fill="#f08c00" text-anchor="start" style="white-space: pre;" direction="ltr" dominant-baseline="text-before-edge">Planos</text></g><g transform="translate(2744.261304582869 2472.2605813647074) rotate(0 72.16197967529297 22.5)"><text x="0" y="0" font-family="Virgil, Segoe UI Emoji" font-size="36px" fill="#f08c00" text-anchor="start" style="white-space: pre;" direction="ltr" dominant-baseline="text-before-edge">Rayos X</text></g><g transform="translate(2754.927961077009 2632.2604287768168) rotate(0 219.68991088867188 22.5)"><text x="0" y="0" font-family="Virgil, Segoe UI Emoji" font-size="36px" fill="#f08c00" text-anchor="start" style="white-space: pre;" direction="ltr" dominant-baseline="text-before-edge">Detector de electricidad</text></g><g transform="translate(3944.2612028576077 1835.593914698041) rotate(0 74.62797546386719 22.5)"><text x="0" y="0" font-family="Virgil, Segoe UI Emoji" font-size="36px" fill="#1971c2" text-anchor="start" style="white-space: pre;" direction="ltr" dominant-baseline="text-before-edge">Guantes</text></g><g transform="translate(2909.5945565359934 1895.5938638354107) rotate(0 64.09797668457031 22.500000000000114)"><text x="0" y="0" font-family="Virgil, Segoe UI Emoji" font-size="36px" fill="#1971c2" text-anchor="start" style="white-space: pre;" direction="ltr" dominant-baseline="text-before-edge">Cadena</text></g><g transform="translate(3141.5945768810457 1922.260530502077) rotate(0 62.51398468017578 22.5)"><text x="0" y="0" font-family="Virgil, Segoe UI Emoji" font-size="36px" fill="#1971c2" text-anchor="start" style="white-space: pre;" direction="ltr" dominant-baseline="text-before-edge">Gancho</text></g><g transform="translate(3422.261385963077 1931.5938231453065) rotate(0 56.73597717285156 22.5)"><text x="0" y="0" font-family="Virgil, Segoe UI Emoji" font-size="36px" fill="#1971c2" text-anchor="start" style="white-space: pre;" direction="ltr" dominant-baseline="text-before-edge">Gafas</text></g><g transform="translate(3646.927930559431 1906.2605711921817) rotate(0 59.09397888183594 22.499999999999886)"><text x="0" y="0" font-family="Virgil, Segoe UI Emoji" font-size="36px" fill="#1971c2" text-anchor="start" style="white-space: pre;" direction="ltr" dominant-baseline="text-before-edge">cuerda</text></g><g transform="translate(2320.094739641462 2131.260418604291) rotate(0 1028.2137451171875 67.5)"><text x="0" y="0" font-family="Virgil, Segoe UI Emoji" font-size="36px" fill="#f08c00" text-anchor="start" style="white-space: pre;" direction="ltr" dominant-baseline="text-before-edge">Análisis de las herramientas</text><text x="0" y="45" font-family="Virgil, Segoe UI Emoji" font-size="36px" fill="#f08c00" text-anchor="start" style="white-space: pre;" direction="ltr" dominant-baseline="text-before-edge">Se estudia cuáles son las herramientas que se pueden agrupar, cuales son las herramientas que excluyen a otras,</text><text x="0" y="90" font-family="Virgil, Segoe UI Emoji" font-size="36px" fill="#f08c00" text-anchor="start" style="white-space: pre;" direction="ltr" dominant-baseline="text-before-edge">cuáles son las herramientas que dependen de otras herramientas.</text></g><g transform="translate(2333.4227273123606 2375.2602812751893) rotate(0 71.17198181152344 22.5)"><text x="0" y="0" font-family="Virgil, Segoe UI Emoji" font-size="36px" fill="#f08c00" text-anchor="start" style="white-space: pre;" direction="ltr" dominant-baseline="text-before-edge">Taladro</text></g><g transform="translate(2336.196678524926 2458.093558659629) rotate(0 67.08596801757812 22.5)"><text x="0" y="0" font-family="Virgil, Segoe UI Emoji" font-size="36px" fill="#f08c00" text-anchor="start" style="white-space: pre;" direction="ltr" dominant-baseline="text-before-edge">Martillo</text></g><g transform="translate(2350.1968209402903 2524.0935179695252) rotate(0 76.39197540283203 22.5)"><text x="0" y="0" font-family="Virgil, Segoe UI Emoji" font-size="36px" fill="#f08c00" text-anchor="start" style="white-space: pre;" direction="ltr" dominant-baseline="text-before-edge">Taquete</text></g><g transform="translate(2370.863477434432 3085.426754663861) rotate(0 51.839988708496094 22.5)"><text x="0" y="0" font-family="Virgil, Segoe UI Emoji" font-size="36px" fill="#f08c00" text-anchor="start" style="white-space: pre;" direction="ltr" dominant-baseline="text-before-edge">Broca</text></g><g transform="translate(2356.8634367443274 2598.760189722455) rotate(0 82.76396942138672 22.5)"><text x="0" y="0" font-family="Virgil, Segoe UI Emoji" font-size="36px" fill="#f08c00" text-anchor="start" style="white-space: pre;" direction="ltr" dominant-baseline="text-before-edge">Extensión</text></g><g transform="translate(2364.1966073172434 2655.4268818204364) rotate(0 43.991981506347656 22.5)"><text x="0" y="0" font-family="Virgil, Segoe UI Emoji" font-size="36px" fill="#f08c00" text-anchor="start" style="white-space: pre;" direction="ltr" dominant-baseline="text-before-edge">Lápiz</text></g><g transform="translate(2386.8632332938064 2916.093538314578) rotate(0 77.27396392822266 22.5)"><text x="0" y="0" font-family="Virgil, Segoe UI Emoji" font-size="36px" fill="#f08c00" text-anchor="start" style="white-space: pre;" direction="ltr" dominant-baseline="text-before-edge">Escalera</text></g><g transform="translate(2360.1967192150305 2744.093619694786) rotate(0 151.39793395996094 22.5)"><text x="0" y="0" font-family="Virgil, Segoe UI Emoji" font-size="36px" fill="#f08c00" text-anchor="start" style="white-space: pre;" direction="ltr" dominant-baseline="text-before-edge">Energía eléctrica</text></g><g transform="translate(2746.8631824311756 2550.7603626553982) rotate(0 110.32196044921875 22.5)"><text x="0" y="0" font-family="Virgil, Segoe UI Emoji" font-size="36px" fill="#f08c00" text-anchor="start" style="white-space: pre;" direction="ltr" dominant-baseline="text-before-edge">Cina métrica</text></g><g transform="translate(2750.8631213960193 2735.4269581143826) rotate(0 74.62797546386719 22.5)"><text x="0" y="0" font-family="Virgil, Segoe UI Emoji" font-size="36px" fill="#f08c00" text-anchor="start" style="white-space: pre;" direction="ltr" dominant-baseline="text-before-edge">Guantes</text></g><g transform="translate(2374.863365536645 2995.4269581143817) rotate(0 56.73597717285156 22.5)"><text x="0" y="0" font-family="Virgil, Segoe UI Emoji" font-size="36px" fill="#f08c00" text-anchor="start" style="white-space: pre;" direction="ltr" dominant-baseline="text-before-edge">Gafas</text></g><g stroke-linecap="round" transform="translate(2268.0947701590403 2313.260235498822) rotate(0 483.0000305175779 560.9999465942383)"><path d="M32 0 C301.73 2.72, 572.03 2.7, 934 0 M32 0 C344.26 1.2, 656.43 1.92, 934 0 M934 0 C955 0.02, 964.83 12.54, 966 32 M934 0 C956.37 0.47, 966.48 12.56, 966 32 M966 32 C962.92 414.31, 962.31 797.32, 966 1090 M966 32 C965.26 410.51, 965.22 788.92, 966 1090 M966 1090 C964.92 1111.4, 954.74 1123.2, 934 1122 M966 1090 C964.6 1112.49, 956.59 1120.59, 934 1122 M934 1122 C722.06 1120.74, 511.75 1120.14, 32 1122 M934 1122 C750.61 1122.62, 568.15 1122.59, 32 1122 M32 1122 C12.24 1122.88, 0.08 1109.61, 0 1090 M32 1122 C12.84 1121.46, -1.29 1111.15, 0 1090 M0 1090 C1.06 763.73, 0.64 435.95, 0 32 M0 1090 C1.44 705.43, 1.76 321.35, 0 32 M0 32 C0.43 9.68, 10.24 -1.68, 32 0 M0 32 C-2 12.24, 11.32 0.02, 32 0" stroke="#f08c00" stroke-width="2" fill="none"></path></g><g transform="translate(3377.5088936941966 2354.2601439460877) rotate(0 67.08596801757812 22.5)"><text x="0" y="0" font-family="Virgil, Segoe UI Emoji" font-size="36px" fill="#1971c2" text-anchor="start" style="white-space: pre;" direction="ltr" dominant-baseline="text-before-edge">Martillo</text></g><g transform="translate(3392.1335580008363 2427.4269657437762) rotate(0 47.717979431152344 22.5)"><text x="0" y="0" font-family="Virgil, Segoe UI Emoji" font-size="36px" fill="#1971c2" text-anchor="start" style="white-space: pre;" direction="ltr" dominant-baseline="text-before-edge">Clavo</text></g><g transform="translate(3360.1336902436756 2652.0937265063094) rotate(0 43.991981506347656 22.5)"><text x="0" y="0" font-family="Virgil, Segoe UI Emoji" font-size="36px" fill="#1971c2" text-anchor="start" style="white-space: pre;" direction="ltr" dominant-baseline="text-before-edge">Lápiz</text></g><g transform="translate(3616.1337004162015 2670.760413518028) rotate(0 116.96395111083984 22.5)"><text x="0" y="0" font-family="Virgil, Segoe UI Emoji" font-size="36px" fill="#1971c2" text-anchor="start" style="white-space: pre;" direction="ltr" dominant-baseline="text-before-edge">Medidor láser</text></g><g transform="translate(3950.8003467378157 2690.760413518028) rotate(0 77.27396392822266 22.5)"><text x="0" y="0" font-family="Virgil, Segoe UI Emoji" font-size="36px" fill="#1971c2" text-anchor="start" style="white-space: pre;" direction="ltr" dominant-baseline="text-before-edge">Escalera</text></g><g transform="translate(4438.800326392764 2816.0938180590438) rotate(0 74.62797546386719 22.5)"><text x="0" y="0" font-family="Virgil, Segoe UI Emoji" font-size="36px" fill="#1971c2" text-anchor="start" style="white-space: pre;" direction="ltr" dominant-baseline="text-before-edge">Guantes</text></g><g transform="translate(3916.8005094982327 2912.0937265063094) rotate(0 56.73597717285156 22.5)"><text x="0" y="0" font-family="Virgil, Segoe UI Emoji" font-size="36px" fill="#1971c2" text-anchor="start" style="white-space: pre;" direction="ltr" dominant-baseline="text-before-edge">Gafas</text></g><g transform="translate(3336.340985979353 2805.2603575691346) rotate(0 191.75393676757824 22.5)"><text x="0" y="0" font-family="Virgil, Segoe UI Emoji" font-size="36px" fill="#f08c00" text-anchor="start" style="white-space: pre;" direction="ltr" dominant-baseline="text-before-edge">Detector de humedad</text></g><g transform="translate(3288.405011858259 2922.760357569134) rotate(0 219.68991088867188 22.5)"><text x="0" y="0" font-family="Virgil, Segoe UI Emoji" font-size="36px" fill="#f08c00" text-anchor="start" style="white-space: pre;" direction="ltr" dominant-baseline="text-before-edge">Detector de electricidad</text></g><g transform="translate(3400.272962297712 3012.7603575691346) rotate(0 110.32196044921886 22.5)"><text x="0" y="0" font-family="Virgil, Segoe UI Emoji" font-size="36px" fill="#f08c00" text-anchor="start" style="white-space: pre;" direction="ltr" dominant-baseline="text-before-edge">Cina métrica</text></g><g transform="translate(2750.3769433157786 2412.7603575691346) rotate(0 47.717979431152344 22.5)"><text x="0" y="0" font-family="Virgil, Segoe UI Emoji" font-size="36px" fill="#1971c2" text-anchor="start" style="white-space: pre;" direction="ltr" dominant-baseline="text-before-edge">Clavo</text></g><g transform="translate(2752.1229760306223 2912.7603575691346) rotate(0 63.97197723388672 22.5)"><text x="0" y="0" font-family="Virgil, Segoe UI Emoji" font-size="36px" fill="#1971c2" text-anchor="start" style="white-space: pre;" direction="ltr" dominant-baseline="text-before-edge">Tornillo</text></g><g transform="translate(2746.777021135603 2983.2603499397405) rotate(0 123.31794738769531 22.5)"><text x="0" y="0" font-family="Virgil, Segoe UI Emoji" font-size="36px" fill="#1971c2" text-anchor="start" style="white-space: pre;" direction="ltr" dominant-baseline="text-before-edge">Destornillador</text></g><g transform="translate(3385.7030388968333 2494.760403345502) rotate(0 76.39197540283203 22.5)"><text x="0" y="0" font-family="Virgil, Segoe UI Emoji" font-size="36px" fill="#f08c00" text-anchor="start" style="white-space: pre;" direction="ltr" dominant-baseline="text-before-edge">Taquete</text></g><g stroke-linecap="round" transform="translate(3276.094953264509 2295.2604338630804) rotate(0 685.9999847412106 486.999988555908)"><path d="M32 0 C479.03 1.94, 925.96 3.01, 1340 0 M32 0 C417.84 2.19, 803.67 1.59, 1340 0 M1340 0 C1360.94 -1.49, 1373.74 11.59, 1372 32 M1340 0 C1359.24 -1.05, 1373.07 11.5, 1372 32 M1372 32 C1371.8 229.11, 1372.72 427.23, 1372 942 M1372 32 C1374.15 257.73, 1374.41 482.92, 1372 942 M1372 942 C1373.26 963.61, 1360.49 974.57, 1340 974 M1372 942 C1370.29 962.07, 1360.99 972.09, 1340 974 M1340 974 C979.01 977.42, 618.12 978.07, 32 974 M1340 974 C825.56 978.54, 311.19 978.59, 32 974 M32 974 C10.71 972.06, -0.76 963.45, 0 942 M32 974 C11.37 975.01, -0.5 962.24, 0 942 M0 942 C-0.57 759.02, 0.01 575.84, 0 32 M0 942 C1.6 731.31, 1.43 520.26, 0 32 M0 32 C1.19 10.97, 8.68 1.23, 32 0 M0 32 C-1.37 12.17, 9.21 1.41, 32 0" stroke="#f08c00" stroke-width="2" fill="none"></path></g><g transform="translate(432.3806152343757 1501.308165898399) rotate(0 699.0836791992188 877.5000000000001)"><text x="0" y="0" font-family="Virgil, Segoe UI Emoji" font-size="36px" fill="#9c36b5" text-anchor="start" style="white-space: pre;" direction="ltr" dominant-baseline="text-before-edge">Definición de soluciones</text><text x="0" y="45" font-family="Virgil, Segoe UI Emoji" font-size="36px" fill="#9c36b5" text-anchor="start" style="white-space: pre;" direction="ltr" dominant-baseline="text-before-edge">con base en los resultados de las estapas anteriores, se procede a </text><text x="0" y="90" font-family="Virgil, Segoe UI Emoji" font-size="36px" fill="#9c36b5" text-anchor="start" style="white-space: pre;" direction="ltr" dominant-baseline="text-before-edge">plantear la o las posibles soluciones al problema.</text><text x="0" y="135" font-family="Virgil, Segoe UI Emoji" font-size="36px" fill="#9c36b5" text-anchor="start" style="white-space: pre;" direction="ltr" dominant-baseline="text-before-edge"></text><text x="0" y="180" font-family="Virgil, Segoe UI Emoji" font-size="36px" fill="#9c36b5" text-anchor="start" style="white-space: pre;" direction="ltr" dominant-baseline="text-before-edge">Ejemplo 1:</text><text x="0" y="225" font-family="Virgil, Segoe UI Emoji" font-size="36px" fill="#9c36b5" text-anchor="start" style="white-space: pre;" direction="ltr" dominant-baseline="text-before-edge"></text><text x="0" y="270" font-family="Virgil, Segoe UI Emoji" font-size="36px" fill="#9c36b5" text-anchor="start" style="white-space: pre;" direction="ltr" dominant-baseline="text-before-edge">Ocupar la escalera, la cinta métrica, y el lápiz, para marcar el lugar</text><text x="0" y="315" font-family="Virgil, Segoe UI Emoji" font-size="36px" fill="#9c36b5" text-anchor="start" style="white-space: pre;" direction="ltr" dominant-baseline="text-before-edge">en el que se va a colocar el clavo</text><text x="0" y="360" font-family="Virgil, Segoe UI Emoji" font-size="36px" fill="#9c36b5" text-anchor="start" style="white-space: pre;" direction="ltr" dominant-baseline="text-before-edge"></text><text x="0" y="405" font-family="Virgil, Segoe UI Emoji" font-size="36px" fill="#9c36b5" text-anchor="start" style="white-space: pre;" direction="ltr" dominant-baseline="text-before-edge">Tomar el martillo y el clavo, y colocar el clavo en el lugar marcado</text><text x="0" y="450" font-family="Virgil, Segoe UI Emoji" font-size="36px" fill="#9c36b5" text-anchor="start" style="white-space: pre;" direction="ltr" dominant-baseline="text-before-edge"></text><text x="0" y="495" font-family="Virgil, Segoe UI Emoji" font-size="36px" fill="#9c36b5" text-anchor="start" style="white-space: pre;" direction="ltr" dominant-baseline="text-before-edge">Usar los clavos para colocar la cuerda en las esquinas superiores del cuadro</text><text x="0" y="540" font-family="Virgil, Segoe UI Emoji" font-size="36px" fill="#9c36b5" text-anchor="start" style="white-space: pre;" direction="ltr" dominant-baseline="text-before-edge"></text><text x="0" y="585" font-family="Virgil, Segoe UI Emoji" font-size="36px" fill="#9c36b5" text-anchor="start" style="white-space: pre;" direction="ltr" dominant-baseline="text-before-edge">Colgar el cuadro</text><text x="0" y="630" font-family="Virgil, Segoe UI Emoji" font-size="36px" fill="#9c36b5" text-anchor="start" style="white-space: pre;" direction="ltr" dominant-baseline="text-before-edge"></text><text x="0" y="675" font-family="Virgil, Segoe UI Emoji" font-size="36px" fill="#9c36b5" text-anchor="start" style="white-space: pre;" direction="ltr" dominant-baseline="text-before-edge"></text><text x="0" y="720" font-family="Virgil, Segoe UI Emoji" font-size="36px" fill="#9c36b5" text-anchor="start" style="white-space: pre;" direction="ltr" dominant-baseline="text-before-edge"></text><text x="0" y="765" font-family="Virgil, Segoe UI Emoji" font-size="36px" fill="#9c36b5" text-anchor="start" style="white-space: pre;" direction="ltr" dominant-baseline="text-before-edge"></text><text x="0" y="810" font-family="Virgil, Segoe UI Emoji" font-size="36px" fill="#9c36b5" text-anchor="start" style="white-space: pre;" direction="ltr" dominant-baseline="text-before-edge">Ejemplo 2:</text><text x="0" y="855" font-family="Virgil, Segoe UI Emoji" font-size="36px" fill="#9c36b5" text-anchor="start" style="white-space: pre;" direction="ltr" dominant-baseline="text-before-edge"></text><text x="0" y="900" font-family="Virgil, Segoe UI Emoji" font-size="36px" fill="#9c36b5" text-anchor="start" style="white-space: pre;" direction="ltr" dominant-baseline="text-before-edge">Ocupar la escalera, la cinta métrica, y el lápiz, para marcar el lugar</text><text x="0" y="945" font-family="Virgil, Segoe UI Emoji" font-size="36px" fill="#9c36b5" text-anchor="start" style="white-space: pre;" direction="ltr" dominant-baseline="text-before-edge">en el que se va a colocar el clavo</text><text x="0" y="990" font-family="Virgil, Segoe UI Emoji" font-size="36px" fill="#9c36b5" text-anchor="start" style="white-space: pre;" direction="ltr" dominant-baseline="text-before-edge"></text><text x="0" y="1035" font-family="Virgil, Segoe UI Emoji" font-size="36px" fill="#9c36b5" text-anchor="start" style="white-space: pre;" direction="ltr" dominant-baseline="text-before-edge">Colocar la broca en el taladro</text><text x="0" y="1080" font-family="Virgil, Segoe UI Emoji" font-size="36px" fill="#9c36b5" text-anchor="start" style="white-space: pre;" direction="ltr" dominant-baseline="text-before-edge">conectar la extensión</text><text x="0" y="1125" font-family="Virgil, Segoe UI Emoji" font-size="36px" fill="#9c36b5" text-anchor="start" style="white-space: pre;" direction="ltr" dominant-baseline="text-before-edge">conectar el taladro</text><text x="0" y="1170" font-family="Virgil, Segoe UI Emoji" font-size="36px" fill="#9c36b5" text-anchor="start" style="white-space: pre;" direction="ltr" dominant-baseline="text-before-edge">hacer el barreno</text><text x="0" y="1215" font-family="Virgil, Segoe UI Emoji" font-size="36px" fill="#9c36b5" text-anchor="start" style="white-space: pre;" direction="ltr" dominant-baseline="text-before-edge"></text><text x="0" y="1260" font-family="Virgil, Segoe UI Emoji" font-size="36px" fill="#9c36b5" text-anchor="start" style="white-space: pre;" direction="ltr" dominant-baseline="text-before-edge">colocar el taquete</text><text x="0" y="1305" font-family="Virgil, Segoe UI Emoji" font-size="36px" fill="#9c36b5" text-anchor="start" style="white-space: pre;" direction="ltr" dominant-baseline="text-before-edge">colocar el clavo</text><text x="0" y="1350" font-family="Virgil, Segoe UI Emoji" font-size="36px" fill="#9c36b5" text-anchor="start" style="white-space: pre;" direction="ltr" dominant-baseline="text-before-edge"></text><text x="0" y="1395" font-family="Virgil, Segoe UI Emoji" font-size="36px" fill="#9c36b5" text-anchor="start" style="white-space: pre;" direction="ltr" dominant-baseline="text-before-edge">Usar los clavos para colocar la cuerda en las esquinas superiores del cuadro</text><text x="0" y="1440" font-family="Virgil, Segoe UI Emoji" font-size="36px" fill="#9c36b5" text-anchor="start" style="white-space: pre;" direction="ltr" dominant-baseline="text-before-edge"></text><text x="0" y="1485" font-family="Virgil, Segoe UI Emoji" font-size="36px" fill="#9c36b5" text-anchor="start" style="white-space: pre;" direction="ltr" dominant-baseline="text-before-edge">Colgar el cuadro</text><text x="0" y="1530" font-family="Virgil, Segoe UI Emoji" font-size="36px" fill="#9c36b5" text-anchor="start" style="white-space: pre;" direction="ltr" dominant-baseline="text-before-edge"></text><text x="0" y="1575" font-family="Virgil, Segoe UI Emoji" font-size="36px" fill="#9c36b5" text-anchor="start" style="white-space: pre;" direction="ltr" dominant-baseline="text-before-edge"></text><text x="0" y="1620" font-family="Virgil, Segoe UI Emoji" font-size="36px" fill="#9c36b5" text-anchor="start" style="white-space: pre;" direction="ltr" dominant-baseline="text-before-edge"></text><text x="0" y="1665" font-family="Virgil, Segoe UI Emoji" font-size="36px" fill="#9c36b5" text-anchor="start" style="white-space: pre;" direction="ltr" dominant-baseline="text-before-edge"></text><text x="0" y="1710" font-family="Virgil, Segoe UI Emoji" font-size="36px" fill="#9c36b5" text-anchor="start" style="white-space: pre;" direction="ltr" dominant-baseline="text-before-edge"></text></g><g transform="translate(10 978.3555626036634) rotate(0 792.251708984375 90)"><text x="0" y="0" font-family="Virgil, Segoe UI Emoji" font-size="36px" fill="#1971c2" text-anchor="start" style="white-space: pre;" direction="ltr" dominant-baseline="text-before-edge">Análisis de las soluciones:</text><text x="0" y="45" font-family="Virgil, Segoe UI Emoji" font-size="36px" fill="#1971c2" text-anchor="start" style="white-space: pre;" direction="ltr" dominant-baseline="text-before-edge"></text><text x="0" y="90" font-family="Virgil, Segoe UI Emoji" font-size="36px" fill="#1971c2" text-anchor="start" style="white-space: pre;" direction="ltr" dominant-baseline="text-before-edge">Aquí se evalúa cuál solución sería la más adecuada con base en el contexto y definición</text><text x="0" y="135" font-family="Virgil, Segoe UI Emoji" font-size="36px" fill="#1971c2" text-anchor="start" style="white-space: pre;" direction="ltr" dominant-baseline="text-before-edge">del problema</text></g><g transform="translate(1065.9997558593752 557.022198752752) rotate(0 127.83594512939453 22.5)"><text x="0" y="0" font-family="Virgil, Segoe UI Emoji" font-size="36px" fill="#1971c2" text-anchor="start" style="white-space: pre;" direction="ltr" dominant-baseline="text-before-edge">Implementación</text></g></svg>